<?xml version="1.0" encoding="UTF-8" standalone="no"?>
<!-- Created with Inkscape (http://www.inkscape.org/) -->

<svg
   xmlns:osb="http://www.openswatchbook.org/uri/2009/osb"
   xmlns:dc="http://purl.org/dc/elements/1.1/"
   xmlns:cc="http://creativecommons.org/ns#"
   xmlns:rdf="http://www.w3.org/1999/02/22-rdf-syntax-ns#"
   xmlns:svg="http://www.w3.org/2000/svg"
   xmlns="http://www.w3.org/2000/svg"
   xmlns:sodipodi="http://sodipodi.sourceforge.net/DTD/sodipodi-0.dtd"
   xmlns:inkscape="http://www.inkscape.org/namespaces/inkscape"
   id="svg2"
   version="1.1"
   inkscape:version="0.91 r13725"
   xml:space="preserve"
   width="765"
   height="990"
   viewBox="0 0 765 990"
   sodipodi:docname="ross2005.svg"><metadata
     id="metadata8"><rdf:RDF><cc:Work
         rdf:about=""><dc:format>image/svg+xml</dc:format><dc:type
           rdf:resource="http://purl.org/dc/dcmitype/StillImage" /><dc:title></dc:title></cc:Work></rdf:RDF></metadata><defs
     id="defs6"><linearGradient
       id="linearGradient4956"
       osb:paint="solid"><stop
         style="stop-color:#000000;stop-opacity:1;"
         offset="0"
         id="stop4958" /></linearGradient><linearGradient
       id="linearGradient4942"
       osb:paint="solid"><stop
         style="stop-color:#000000;stop-opacity:1;"
         offset="0"
         id="stop4944" /></linearGradient><filter
       style="color-interpolation-filters:sRGB;"
       inkscape:label="Drop Shadow"
       id="filter5710"><feFlood
         flood-opacity="0.498039"
         flood-color="rgb(0,0,0)"
         result="flood"
         id="feFlood5712" /><feComposite
         in="flood"
         in2="SourceGraphic"
         operator="in"
         result="composite1"
         id="feComposite5714" /><feGaussianBlur
         in="composite1"
         stdDeviation="8"
         result="blur"
         id="feGaussianBlur5716" /><feOffset
         dx="-8.04912e-16"
         dy="0"
         result="offset"
         id="feOffset5718" /><feComposite
         in="SourceGraphic"
         in2="offset"
         operator="over"
         result="composite2"
         id="feComposite5720" /></filter></defs><sodipodi:namedview
     pagecolor="#ffffff"
     bordercolor="#666666"
     borderopacity="1"
     objecttolerance="10"
     gridtolerance="10"
     guidetolerance="10"
     inkscape:pageopacity="0"
     inkscape:pageshadow="2"
     inkscape:window-width="1354"
     inkscape:window-height="860"
     id="namedview4"
     showgrid="false"
     inkscape:zoom="0.95353535"
     inkscape:cx="392.35078"
     inkscape:cy="588.29888"
     inkscape:window-x="0"
     inkscape:window-y="24"
     inkscape:window-maximized="0"
     inkscape:current-layer="g10" /><g
     id="g10"
     inkscape:groupmode="layer"
     inkscape:label="ross2005"
     transform="matrix(1.25,0,0,-1.25,0,990)"><rect
       style="color:#000000;clip-rule:nonzero;display:inline;overflow:visible;visibility:visible;opacity:1;isolation:auto;mix-blend-mode:normal;color-interpolation:sRGB;color-interpolation-filters:linearRGB;solid-color:#000000;solid-opacity:1;fill:#ffffff;fill-opacity:1;fill-rule:evenodd;stroke:none;stroke-width:0.56;stroke-linecap:butt;stroke-linejoin:miter;stroke-miterlimit:4;stroke-dasharray:none;stroke-dashoffset:0;stroke-opacity:1;marker:none;color-rendering:auto;image-rendering:auto;shape-rendering:auto;text-rendering:auto;enable-background:accumulate;filter:url(#filter5710)"
       id="rect4462"
       width="503.38986"
       height="365.79663"
       x="57.889835"
       y="-716.49164"
       transform="scale(1,-1)" /><text
       id="text18"
       style="font-variant:normal;font-weight:bold;font-size:17.21549988px;font-family:Times;-inkscape-font-specification:Times-Bold;writing-mode:lr-tb;fill:#000000;fill-opacity:1;fill-rule:nonzero;stroke:none"
       transform="scale(1,-1)"
       x="156.366"
       y="-678.159"><tspan
         id="tspan20"
         sodipodi:role="line"
         y="-678.159"
         x="156.366 165.93782 171.67058 178.991 187.58153 197.15335 205.74388 213.37035 225.29871 235.6463 244.23683 250.91644 257.59607 269.8374 278.42795 286.05441 299.93719 311.4855 321.05731 326.79007 336.36191 343.98837 353.56018 359.29294 364.07886 371.70532 380.29587 386.02863 390.81451 399.40506 413.2695 425.68188 432.36148 437.1474 446.71921">StrongerPasswordAuthenticationUsing</tspan><tspan
         id="tspan22"
         sodipodi:role="line"
         y="-656.23499"
         x="233.31551 244.79823 252.1187 260.53821 272.95059 279.63019 287.25668 299.194 310.67676 319.26727 325.00006 332.62653 342.19833 348.87796 353.66385 362.25439 371.8262">BrowserExtensions</tspan></text>
<text
       id="text24"
       style="font-variant:normal;font-weight:normal;font-size:11.95510006px;font-family:CMSY10;-inkscape-font-specification:CMSY10;writing-mode:lr-tb;fill:#000000;fill-opacity:1;fill-rule:nonzero;stroke:none"
       transform="scale(1,-1)"
       x="378.6835"
       y="-662.49005"><tspan
         id="tspan26"
         y="-662.49005"
         x="378.6835">∗</tspan></text>
<text
       id="text28"
       style="font-style:italic;font-variant:normal;font-size:11.95510006px;font-family:Times;-inkscape-font-specification:Times-Italic;writing-mode:lr-tb;fill:#000000;fill-opacity:1;fill-rule:nonzero;stroke:none"
       transform="scale(1,-1)"
       x="140.35451"
       y="-627.34503"><tspan
         id="tspan30"
         sodipodi:role="line"
         y="-627.34503"
         x="140.35451 147.65907 150.97064 156.93623 162.12741 170.42348 177.72804 183.69363 188.34418">BlakeRoss</tspan></text>
<text
       id="text32"
       style="font-style:oblique;font-variant:normal;font-size:8.96638012px;font-family:Courier;-inkscape-font-specification:Courier-Oblique;writing-mode:lr-tb;fill:#000000;fill-opacity:1;fill-rule:nonzero;stroke:none"
       transform="scale(1,-1)"
       x="110.20458"
       y="-613.40405"><tspan
         id="tspan34"
         sodipodi:role="line"
         y="-613.40405"
         x="110.20458 115.58441 120.96423 126.34406 131.72389 137.10371 142.48355 147.86337 153.24321 158.62303 164.00285 169.38269 174.76251 180.14235 185.52217 190.90199 196.28183 201.66165 207.04149 212.42131 217.80113">blake@cs.stanford.edu</tspan></text>
<text
       id="text36"
       style="font-style:italic;font-variant:normal;font-size:11.95510006px;font-family:Times;-inkscape-font-specification:Times-Italic;writing-mode:lr-tb;fill:#000000;fill-opacity:1;fill-rule:nonzero;stroke:none"
       transform="scale(1,-1)"
       x="276.01157"
       y="-627.34503"><tspan
         id="tspan38"
         sodipodi:role="line"
         y="-627.34503"
         x="276.01157 283.97366 289.93927 293.25082 296.56241 299.87396 308.83667 313.73077 319.69635 324.76147 330.06952 334.72006 340.68567">CollinJackson</tspan></text>
<text
       id="text40"
       style="font-style:oblique;font-variant:normal;font-size:8.96638012px;font-family:Courier;-inkscape-font-specification:Courier-Oblique;writing-mode:lr-tb;fill:#000000;fill-opacity:1;fill-rule:nonzero;stroke:none"
       transform="scale(1,-1)"
       x="249.51567"
       y="-613.40405"><tspan
         id="tspan42"
         sodipodi:role="line"
         y="-613.40405"
         x="249.51567 254.89549 260.27533 265.65515 271.03497 276.41479 281.79465 287.17447 292.55429 297.93411 303.31393 308.69379 314.07361 319.45343 324.83325 330.21307 335.59293 340.97275 346.35257 351.73239 357.11221 362.49207 367.87189">collinj@cs.stanford.edu</tspan></text>
<text
       id="text44"
       style="font-style:italic;font-variant:normal;font-size:11.95510006px;font-family:Times;-inkscape-font-specification:Times-Italic;writing-mode:lr-tb;fill:#000000;fill-opacity:1;fill-rule:nonzero;stroke:none"
       transform="scale(1,-1)"
       x="420.82166"
       y="-627.34503"><tspan
         id="tspan46"
         sodipodi:role="line"
         y="-627.34503"
         x="420.82166 428.78375 432.09534 437.16046 445.45657 455.41516 458.72672 464.03479 470.00037 475.19156">NickMiyake</tspan></text>
<text
       id="text48"
       style="font-style:oblique;font-variant:normal;font-size:8.96638012px;font-family:Courier;-inkscape-font-specification:Courier-Oblique;writing-mode:lr-tb;fill:#000000;fill-opacity:1;fill-rule:nonzero;stroke:none"
       transform="scale(1,-1)"
       x="399.57266"
       y="-613.40405"><tspan
         id="tspan50"
         sodipodi:role="line"
         y="-613.40405"
         x="399.57266 404.95248 410.33231 415.71216 421.09198 426.4718 431.85162 437.23145 442.6113 447.99112 453.37094 458.75076 464.13058 469.51044 474.89026 480.27008 485.6499 491.02972 496.40958">nfm@cs.stanford.edu</tspan></text>
<text
       id="text52"
       style="font-style:italic;font-variant:normal;font-size:11.95510006px;font-family:Times;-inkscape-font-specification:Times-Italic;writing-mode:lr-tb;fill:#000000;fill-opacity:1;fill-rule:nonzero;stroke:none"
       transform="scale(1,-1)"
       x="208.57466"
       y="-593.47803"><tspan
         id="tspan54"
         sodipodi:role="line"
         y="-593.47803"
         x="208.57466 217.19429 223.15988 232.12256 239.42712 245.39272 251.35832 256.66638">DanBoneh</tspan></text>
<text
       id="text56"
       style="font-style:oblique;font-variant:normal;font-size:8.96638012px;font-family:Courier;-inkscape-font-specification:Courier-Oblique;writing-mode:lr-tb;fill:#000000;fill-opacity:1;fill-rule:nonzero;stroke:none"
       transform="scale(1,-1)"
       x="181.83566"
       y="-579.52802"><tspan
         id="tspan58"
         sodipodi:role="line"
         y="-579.52802"
         x="181.83566 187.21548 192.59532 197.97514 203.35497 208.7348 214.11462 219.49446 224.87428 230.25412 235.63394 241.01376 246.3936 251.77342 257.15326 262.53308 267.9129 273.29272 278.67258 284.0524">dabo@cs.stanford.edu</tspan></text>
<text
       id="text60"
       style="font-style:italic;font-variant:normal;font-size:11.95510006px;font-family:Times;-inkscape-font-specification:Times-Italic;writing-mode:lr-tb;fill:#000000;fill-opacity:1;fill-rule:nonzero;stroke:none"
       transform="scale(1,-1)"
       x="340.77567"
       y="-593.47803"><tspan
         id="tspan62"
         sodipodi:role="line"
         y="-593.47803"
         x="340.77567 345.78674 351.75235 357.71793 366.67154 377.62164 387.58023 390.89182 394.20337 399.33154 405.29715 410.60519 413.91678">JohnCMitchell</tspan></text>
<text
       id="text64"
       style="font-style:oblique;font-variant:normal;font-size:8.96638012px;font-family:Courier;-inkscape-font-specification:Courier-Oblique;writing-mode:lr-tb;fill:#000000;fill-opacity:1;fill-rule:nonzero;stroke:none"
       transform="scale(1,-1)"
       x="327.94165"
       y="-579.52802"><tspan
         id="tspan66"
         sodipodi:role="line"
         y="-579.52802"
         x="327.94165 333.32147 338.70129 344.08112 349.46094 354.84079 360.22061 365.60043 370.98026 376.36011 381.73993 387.11975 392.49957 397.87939 403.25922 408.63907 414.01889 419.39871 424.77853">jcm@cs.stanford.edu</tspan></text>
<text
       id="text68"
       style="font-variant:normal;font-weight:bold;font-size:9.96263981px;font-family:Times;-inkscape-font-specification:Times-Bold;writing-mode:lr-tb;fill:#000000;fill-opacity:1;fill-rule:nonzero;stroke:none"
       transform="scale(1,-1)"
       x="89.999641"
       y="-540.47705"><tspan
         id="tspan70"
         sodipodi:role="line"
         y="-540.47705"
         x="89.999641 97.182701 102.71197 106.58743 109.905 114.31844 119.2898 123.70325">Abstract</tspan></text>
<text
       id="text72"
       style="font-variant:normal;font-weight:normal;font-size:9.96263981px;font-family:Times;-inkscape-font-specification:Times-Roman;writing-mode:lr-tb;fill:#000000;fill-opacity:1;fill-rule:nonzero;stroke:none"
       transform="scale(1,-1)"
       x="113.91264"
       y="-522.07202"><tspan
         id="tspan74"
         sodipodi:role="line"
         y="-522.07202"
         x="113.91264 122.51638 130.66479 135.63615 140.04959 143.92506 148.33852 151.65607 154.42569 159.39705 167.55449 175.7029 180.67426 183.99182 188.7112 195.89426 199.76973 204.18318 211.24471 215.50514 220.47652 223.24612 227.65958 232.63092 236.50639 239.27602 244.24738 249.21873">Wedescribeabrowserextension,</tspan></text>
<text
       id="text76"
       style="font-variant:normal;font-weight:normal;font-size:9.96263981px;font-family:Helvetica;-inkscape-font-specification:Helvetica;writing-mode:lr-tb;fill:#000000;fill-opacity:1;fill-rule:nonzero;stroke:none"
       transform="scale(1,-1)"
       x="255.76836"
       y="-522.07202"><tspan
         id="tspan78"
         sodipodi:role="line"
         y="-522.07202"
         x="255.76836 262.40347 269.58652 275.11578 282.29886 287.82812 292.79947">PwdHash</tspan></text>
<text
       id="text80"
       style="font-variant:normal;font-weight:normal;font-size:9.96263981px;font-family:Times;-inkscape-font-specification:Times-Roman;writing-mode:lr-tb;fill:#000000;fill-opacity:1;fill-rule:nonzero;stroke:none"
       transform="scale(1,-1)"
       x="298.32874"
       y="-522.07202"><tspan
         id="tspan82"
         y="-522.07202"
         x="298.32874">,</tspan><tspan
         id="tspan84"
         sodipodi:role="line"
         y="-510.11102"
         x="89.999756 92.769363 97.740723 102.15417 108.34375 111.11336 114.43092 118.84438 123.81573 127.69119 132.66255 137.076 140.39357 144.80701 149.77837 152.54799 155.3176 163.70895 168.68031 171.99786 176.96922 181.94058 186.91194 191.32539 195.73883 203.04324 210.87666 215.84802 218.61765 221.68317 225.00073 229.41417 232.73174 237.14519 242.11655 248.30617 253.27753 257.69098 261.56644 265.44189 272.52597 277.49731 280.81488 289.20618 292.52374 297.49509">thattransparentlyproducesadifferentpasswordfor</tspan><tspan
         id="tspan86"
         sodipodi:role="line"
         y="-498.15903"
         x="89.999176 94.412613 98.826065 103.23952 111.38786 115.26334 118.03296 120.80257 125.21602 131.02766 133.79729 141.53825 146.50961 149.82718 154.64557 159.61693 162.38654 167.35789 175.51527 182.69833 187.11179 195.25107 200.22243 204.63588 208.51134 212.38681 219.47087 224.44223 227.75978 235.89906 239.77454 244.18799 248.60144 253.5728 256.89035 259.65997 262.42957 270.56888 274.98233 279.95367 288.10196 293.07333 297.48679">eachsite,improvingwebpasswordsecurityandde-</tspan><tspan
         id="tspan88"
         sodipodi:role="line"
         y="-486.20703"
         x="89.998978 93.316528 97.72998 102.70134 107.6727 110.44231 115.41367 122.99496 127.40842 132.32578 136.73923 139.50885 144.48019 148.35567 153.72629 158.69763 163.11108 166.98656 170.86201 177.94608 182.91742 186.235 193.80728 198.77864 203.74998 206.51961 210.39507 215.36642 218.13605 223.10741 230.67967 235.09312 240.06448 247.63678 252.60814 255.37775 260.34912 264.76254 270.68109 275.09454 277.86414 280.63376 285.04721 289.46066 294.43201 298.3075">fendingagainstpasswordphishingandotherattacks.</tspan><tspan
         id="tspan90"
         sodipodi:role="line"
         y="-474.24603"
         x="89.999084 95.528351 98.297958 103.26932 107.68277 115.25519 118.0248 122.99615 130.55959 135.53094 138.8485 143.56789 150.75095 154.6264 159.03986 165.49838 169.75883 174.73019 177.4998 181.91325 186.8846 190.76007 193.52969 198.50104 206.64032 211.05377 216.02513 220.99649 223.7661 226.53572 230.94917 237.97462 245.53802 249.95148 253.26904 258.24039 263.21176 265.98135 270.95273 275.92407 279.24164 283.65509 288.62643 293.59781 296.36743">Sincethebrowserextensionappliesacryptographic</tspan><tspan
         id="tspan92"
         sodipodi:role="line"
         y="-462.29404"
         x="89.999023 94.970383 99.383835 103.25931 110.97563 114.29318 119.26454 124.2359 128.64935 131.41896 134.18858 139.15994 146.88522 149.65485 157.36223 164.52065 168.9341 173.90546 181.64642 186.61778 189.38739 194.35875 198.7722 201.54182 204.31143 209.28279 217.01715 221.98851 228.04205 230.81166 235.78302 242.94145 247.91281 250.68242 255.09587 257.86548 262.83685 265.60645 269.86694 274.83832 280.36185 285.33322 289.74664 293.62213 297.49759">hashfunctiontoacombinationoftheplaintextpass-</tspan><tspan
         id="tspan94"
         sodipodi:role="line"
         y="-450.34192"
         x="89.998856 97.082916 102.05428 105.37183 114.42911 118.84256 123.81392 126.58353 130.99698 134.31454 138.728 147.80331 152.77467 161.841 164.61063 169.58199 178.08141 183.05275 186.92824 191.34167 194.26321 201.23584 206.2072 210.62065 213.39026 221.89864 226.31209 230.18755 234.06302 239.03438 243.44783 246.21744 250.63089 253.40051 257.81396 266.88034 274.06342 276.83301 279.60263 288.65994 291.42957 296.40091">wordenteredbytheuser,dataassociatedwiththe</tspan><tspan
         id="tspan96"
         sodipodi:role="line"
         y="-438.38104"
         x="89.998947 97.182007 101.59546 109.32074 113.19621 115.96582 118.73543 123.14888 128.43854 132.85199 137.82335 145.54865 148.8662 153.83755 158.80891 161.57852 164.34814 169.3195 174.29085 178.7043 181.47392 184.24353 189.21489 195.28644 202.44485 207.41621 210.73378 213.25136 217.97072 222.38417 225.15378 232.33022 236.20569 240.61914 243.38875 248.89432 252.76979 255.5394 260.51074 263.82831 268.24176 275.95813 280.92947 288.65482 291.42444 296.39578">website,and(optionally)aprivatesaltstoredonthe</tspan><tspan
         id="tspan98"
         sodipodi:role="line"
         y="-426.42892"
         x="89.998825 94.412277 97.181885 99.951492 104.36494 109.3363 114.78792 122.52888 126.94234 131.35579 136.32715 139.09676 144.06812 148.48157 153.70822 156.47783 161.44919 165.86264 169.18021 174.63182 179.60318 185.59372 188.36333 193.33469 200.43011 205.40147 209.81493 213.69038 217.56586 224.64992 229.62128 232.93883 240.59212 243.90968 248.32312 252.73657 257.15002 259.66763 264.48599 268.89941 276.57977 280.99323 286.43582 291.4072 296.37854">clientmachine,theftofthepasswordreceivedatone</tspan><tspan
         id="tspan100"
         sodipodi:role="line"
         y="-414.46793"
         x="89.998825 93.874298 96.643906 99.413528 107.94893 115.13199 117.90161 120.67122 127.55383 132.52519 137.49655 144.39713 149.36848 152.13811 156.55154 159.32117 168.41454 176.95894 181.9303 186.34375 190.21921 194.09468 201.17874 206.1501 209.46765 218.56993 221.33955 226.31091 230.72435 237.61594 240.38556 248.37404 253.3454 257.22086 261.63431 264.95187 269.92322 276.82385 281.23727 288.12894 292.54239 297.51373">sitewillnotyieldapasswordthatisusefulatan-</tspan><tspan
         id="tspan102"
         sodipodi:role="line"
         y="-402.51593"
         x="89.998947 94.970291 97.739914 102.71127 107.12473 113.25925 117.1347 119.90433 122.67393 127.08739 133.61903 143.02377 147.99513 150.76474 153.53436 160.75574 163.52536 168.49672 175.72714 179.6026 184.01605 188.98741 193.40086 201.14183 208.38124 211.69879 216.11224 221.0836 226.05496 228.82457 232.14214 236.55559">othersite.Whiletheschemerequires</tspan></text>
<text
       id="text104"
       style="font-style:italic;font-variant:normal;font-size:9.96263981px;font-family:Times;-inkscape-font-specification:Times-Italic;writing-mode:lr-tb;fill:#000000;fill-opacity:1;fill-rule:nonzero;stroke:none"
       transform="scale(1,-1)"
       x="243.24805"
       y="-402.51593"><tspan
         id="tspan106"
         sodipodi:role="line"
         y="-402.51593"
         x="243.24805 248.21939">no</tspan></text>
<text
       id="text108"
       style="font-variant:normal;font-weight:normal;font-size:9.96263981px;font-family:Times;-inkscape-font-specification:Times-Roman;writing-mode:lr-tb;fill:#000000;fill-opacity:1;fill-rule:nonzero;stroke:none"
       transform="scale(1,-1)"
       x="256.00775"
       y="-402.51593"><tspan
         id="tspan110"
         sodipodi:role="line"
         y="-402.51593"
         x="256.00775 260.4212 265.39255 269.806 274.77734 279.74872 284.16217 290.87265 295.84399">changeson</tspan><tspan
         id="tspan112"
         sodipodi:role="line"
         y="-390.56393"
         x="89.998642 92.76825 97.739609 105.29404 109.16951 113.58295 116.90051 121.71893 126.13239 132.58194 136.45741 139.22702 144.19838 148.61183 154.39644 157.16606 164.90703 169.87839 172.64799 177.06145 184.80241 189.21587 194.18723 196.95683 199.72646 204.69781 212.81914 215.58875 220.5601 223.32973 230.33714 235.3085 239.72194 243.59741 247.47289 254.55695 259.52829 262.84586 270.95813 278.6991 283.11255 285.88217 290.85352 295.82489">theserverside,implementingthispasswordmethod</tspan><tspan
         id="tspan114"
         sodipodi:role="line"
         y="-378.60294"
         x="89.998138 93.873596 98.287048 102.7005 107.67186 110.98943 115.40286 118.17249 126.87883 131.2923 136.26366 144.96994 147.73955 151.05711 155.47057 160.44193 164.31738 169.28874 173.70219 177.01976 181.4332 186.40456 189.17418 191.94379 200.65013 203.41975 212.11703 220.25644 227.4395 231.85295 240.55923 245.53059 248.84816 253.56754 260.75061 264.62607 269.03952 276.09204 280.35248 285.32385 288.09344 292.5069 297.47827">securelyandtransparentlyinawebbrowserexten-</tspan><tspan
         id="tspan116"
         sodipodi:role="line"
         y="-366.65094"
         x="89.998489 93.873947 96.64357 101.61493 109.94328 112.71291 117.68425 121.00182 125.97318 133.19659 138.16795 143.1393 149.26588 152.03551 160.36378 165.33514 173.10559 178.07695 183.04831 185.81792 188.58754 196.35799 201.32935 204.09895 207.16449 212.69376 217.10721 222.07857 224.84818 227.61778 235.78738 244.39113 252.16154 257.1329 261.54636 265.42181 269.83527 273.15283 275.92242 280.8938 288.67325 291.44284 296.41422">sionturnsouttobequitediffcult.Wedescribethe</tspan><tspan
         id="tspan118"
         sodipodi:role="line"
         y="-354.69891"
         x="89.99823 94.411682 99.383041 103.79649 106.5661 109.33572 113.74918 118.72052 123.69188 128.10535 134.62674 141.8098 148.86024 152.0788 156.49223 160.90569 165.31914 172.92749 175.6971 183.29639 186.06601 193.80698 198.77834 201.54794 205.9614 213.70236 218.11581 223.08717 225.85678 228.6264 233.59776">challengeswefacedinimplementing</tspan></text>
<text
       id="text120"
       style="font-variant:normal;font-weight:normal;font-size:9.96263981px;font-family:Helvetica;-inkscape-font-specification:Helvetica;writing-mode:lr-tb;fill:#000000;fill-opacity:1;fill-rule:nonzero;stroke:none"
       transform="scale(1,-1)"
       x="241.22409"
       y="-354.69894"><tspan
         id="tspan122"
         sodipodi:role="line"
         y="-354.69894"
         x="241.22409 247.85921 255.04227 260.57153 267.75461 273.28387 278.25522">PwdHash</tspan></text>
<text
       id="text198"
       style="font-variant:normal;font-weight:normal;font-size:9.96263981px;font-family:Times;-inkscape-font-specification:Times-Roman;writing-mode:lr-tb;fill:#000000;fill-opacity:1;fill-rule:nonzero;stroke:none"
       transform="scale(1,-1)"
       x="310.97696"
       y="-540.47699"><tspan
         id="tspan200"
         sodipodi:role="line"
         y="-540.47699"
         x="310.97696 315.94833 320.36179 324.77524 329.64758 334.061 337.37857 344.46707 347.23669 355.40308 360.37442 363.69199 368.10544 372.51889 380.69418 383.46378 388.43515 391.20474 399.38007 406.98849 409.75812 414.47745 424.86456 428.74002 433.15347 437.56693 442.53827 445.85583 448.62546 451.39505 459.56134 463.43683 466.20642 468.97604 476.58444 479.35406 484.32541 488.73886 494.70346 498.57892 501.34854 509.08951 514.06085 516.83044">hackerstobreakintoalowsecuritysitethatsimply</tspan><tspan
         id="tspan202"
         sodipodi:role="line"
         y="-528.51599"
         x="310.97644 314.85193 317.62152 322.5929 325.91046 330.32388 337.95236 342.92371 346.79916 351.21262 354.53018 359.50153 363.91498 371.65594 376.0694 378.83902 383.81039 388.22385 392.0993 395.97476 403.05884 408.03021 411.34778 416.31912 423.97455 426.74417 435.47754 438.24716 443.21851 451.39395 455.8074 458.577 462.99045 467.4039 474.48346 478.89691 483.86826 492.61053 497.58191 501.45737 509.63284 512.40247 517.37384">storesusername/passwordsintheclearandusethe</tspan><tspan
         id="tspan204"
         sodipodi:role="line"
         y="-516.56403"
         x="310.97684 314.2944 318.70786 321.47748 324.79504 327.56464 331.72604 336.5444 340.95786 349.76321 354.73456 359.14801 363.02347 366.89896 373.983 378.95438 382.27194 387.24329 394.93472 399.34818 405.93372 414.17212 419.14346 421.91309 426.88443 435.68073 439.55618 443.96964 448.38309 453.35443 456.672 459.44159 462.21121 470.9986 474.87408 477.64368 480.4133 484.82675 491.4574 495.33289 500.30423 504.71768 513.51392 517.92737">retrievedpasswordsatahighsecuritysite,suchas</tspan><tspan
         id="tspan206"
         sodipodi:role="line"
         y="-504.612"
         x="310.9769 318.72934 323.70068 328.11414 333.08548 338.05685 346.17242 352.24963 357.22101 359.9906 367.19601 371.60947 374.37909 377.14871 381.56216 385.97562 390.94696 396.99265 404.17569 409.14706 411.91666 416.33011 424.64044 427.95798 432.37143 437.3428 442.31415 445.08377 448.40134 452.81476 460.02924 462.79883 465.56845 468.33807 471.1077 473.87729 481.61172 488.6958 493.66718 496.98471 501.95609 507.99271 512.40613 516.81958">abank.Thisattack,whichrequireslittlework,can</tspan><tspan
         id="tspan208"
         sodipodi:role="line"
         y="-492.651"
         x="310.97672 313.74634 318.15976 322.57321 330.5325 333.30212 341.25241 344.02203 348.99338 356.3858 359.15543 364.12677 368.54022 371.85779 377.59741 382.56876 388.86533 391.63492 396.60629 401.57764 406.54901 410.42447 414.83792 419.80927 424.78064 431.6441 436.61548 442.91202 447.88336 452.29681 457.26816 462.23953 465.00916 469.9805 477.94882 482.92017 487.33362 491.20908 495.08453 502.16861 507.13995 510.45752 515.42889 519.30432">leadtothetheftofthousandsofbankingpasswords.</tspan><tspan
         id="tspan210"
         sodipodi:role="line"
         y="-480.69901"
         x="310.97662 320.38135 325.35269 328.12231 330.89194 338.91431 343.88568 348.2991 352.17459 356.05005 363.13409 368.10547 371.42303 379.99432 384.40775 389.37912 392.14874 397.12009 401.53354 406.50488 409.27451 412.04413 416.45758 420.87103 423.64066 426.41025 431.38162 439.97992 444.39337 449.36472 454.33606 457.10568 465.69501 470.66635 478.68881 483.10226 488.07361 492.48706 497.45844 502.42978 507.40112 512.3725 516.78595">Whilepasswordauthenticationcouldbeabandoned</tspan><tspan
         id="tspan212"
         sodipodi:role="line"
         y="-468.73801"
         x="310.97681 313.74643 320.94077 324.15933 328.37476 333.1481 338.11945 343.651 348.62234 354.1539 359.12524 363.5387 366.85626 371.82761 378.91168 383.32513 386.6427 393.28809 396.05771 401.02905 405.9014 410.31485 415.28619 421.39359 426.36496 431.89648 436.30994 439.07956 441.84915 446.2626 451.23398 456.22659 460.64005 465.0535 468.37103 471.14066 473.91028 479.43954 483.853 488.26645 491.03604 495.44949 499.32498 504.09259 509.06393 514.03528 516.80493">infavorofhardwaretokensorclientcertifcates,both</tspan><tspan
         id="tspan214"
         sodipodi:role="line"
         y="-456.78601"
         x="310.97659 315.94794 320.91931 323.6889 326.45853 331.4299 336.40125 343.16568 347.57913 350.8967 358.19009 363.16144 365.93106 368.99658 374.52585 378.9393 383.91068 386.68027 392.3389 395.10849 402.95978 407.37323 412.3446 417.31595 422.28732 427.94589 432.91724 437.33069 441.74414 446.15759 451.12894 455.00443 462.31589 467.28723 473.4758 476.24539 481.21677 488.5192 492.93265 497.90399 501.77945 507.42908 511.84253 516.8139">optionsarediffculttoadoptbecauseofthecostand</tspan><tspan
         id="tspan216"
         sodipodi:role="line"
         y="-444.83401"
         x="310.9761 313.7457 318.71707 323.13052 328.10187 332.67719 337.49554 341.909 346.88034 349.64996 354.06342 359.03479 363.44821 371.25464 376.22601 382.89154 387.86292 392.27637 395.5939 400.56528 407.64935 412.06281 415.38037 423.15976 425.92935 430.90073 435.77304 440.18649 445.15787 452.39026 456.80371 461.77505 470.10333 472.87296 477.84433 485.60574 490.4241 495.24246 499.65591 502.97348 507.94482 512.35828 516.77173">inconvenienceofhardwaretokensandtheoverhead</tspan><tspan
         id="tspan218"
         sodipodi:role="line"
         y="-432.87302"
         x="310.97647 315.94781 321.75836 329.49933 333.91278 338.88416 343.29761 348.26895 351.03857 356.00992 363.50128 367.9147 370.68433 373.45395 377.8674 382.83875 388.10138 392.51483 396.92828 400.24582 403.01544 405.78506 411.31433 415.72778 420.14124 422.91083 427.32428 431.19974">ofmanagingclientcertifcates.</tspan><tspan
         id="tspan220"
         sodipodi:role="line"
         y="-414.94501"
         x="334.88947 338.20703 346.50836 349.27798 354.24933 357.01895 364.21536 369.18674 373.60019 378.57153 382.98499 385.90659 391.94321 399.12628 406.87872 411.85007 416.26352 420.13901 424.55243 427.87003 430.63962 435.61096 443.3634 446.13303 451.1044 458.84781 463.81918 468.23264 472.10809 474.87772 479.84906 484.82043 490.85712 495.82846 499.70395 504.1174 510.76492 513.53455 518.50586">Inthispaper,wedescribethedesign,userin-</tspan><tspan
         id="tspan222"
         sodipodi:role="line"
         y="-402.99301"
         x="310.97693 313.74652 318.15997 321.47754 324.69611 329.10956 333.52301 337.93646 343.8381 348.25156 353.22293 361.4342 364.20383 371.94479 376.91617 379.68579 384.09921 391.84021 396.25366 401.22501 403.99463 408.40808 411.17767 413.9473 418.91864 427.13004 432.10138 438.64093 446.27631 451.24768 454.56525 459.28461 466.46768 470.34314 474.75659 481.30511 485.56555 490.53693 493.30655 497.72 502.69135 506.5668 509.33643 514.3078 519.27911">terface,andimplementationofabrowserextension,</tspan></text>
<text
       id="text224"
       style="font-variant:normal;font-weight:normal;font-size:9.96263981px;font-family:Helvetica;-inkscape-font-specification:Helvetica;writing-mode:lr-tb;fill:#000000;fill-opacity:1;fill-rule:nonzero;stroke:none"
       transform="scale(1,-1)"
       x="310.97656"
       y="-391.03201"><tspan
         id="tspan226"
         sodipodi:role="line"
         y="-391.03201"
         x="310.97656 317.61169 324.79474 330.32401 337.50708 343.03635 348.00769">PwdHash</tspan></text>
<text
       id="text228"
       style="font-variant:normal;font-weight:normal;font-size:9.96263981px;font-family:Times;-inkscape-font-specification:Times-Roman;writing-mode:lr-tb;fill:#000000;fill-opacity:1;fill-rule:nonzero;stroke:none"
       transform="scale(1,-1)"
       x="353.53696"
       y="-391.03201"><tspan
         id="tspan230"
         sodipodi:role="line"
         y="-391.03201"
         x="353.53696 360.71661 363.48624 368.45758 372.87103 379.87061 383.74606 386.51569 389.83325 394.2467 399.21805 404.18942 406.95901 411.93039 416.34384 421.31519 429.4296 436.61267 441.02612 450.23642 455.20776 459.62122 463.49667 467.37216 474.45621 479.42755 482.74512 491.94641 496.35986 501.33121 504.10083 509.07217 513.48566 518.45697">,thatstrengthenswebpasswordauthen-</tspan><tspan
         id="tspan232"
         sodipodi:role="line"
         y="-379.08002"
         x="310.97641 313.74603 316.51562 320.92908 325.34253 328.11215 330.88177 335.85312 340.82449 351.2171 359.82086 368.33826 373.30963 377.72305 380.49268 383.2623 387.42377 392.24213 400.76855 403.53815 408.50952 412.92297 419.78754 424.75888 433.83423 438.8056 442.12317 446.94153 451.9129 454.6825 459.65387 462.42349 467.39484 476.47913 480.89258 485.86395 489.73941 492.50903 497.48038 505.22134 507.99097 512.40442 516.81787">tication.Webelievethatbyprovidingcustomized</tspan><tspan
         id="tspan234"
         sodipodi:role="line"
         y="-367.11902"
         x="310.97614 315.94751 320.36096 324.23642 328.11188 335.19595 340.1673 343.48486 348.45621 352.3317 358.62033 363.59171 366.90927 371.32269 374.64026 379.05371 382.37128 386.78473 391.75607 394.5257 403.03403 407.85239 412.67075 417.0842 423.94775 429.47702 435.00629 441.0835 447.11115 454.29422 462.24466 466.65811 471.07156 479.57986 482.8974 487.31085 492.28223 497.25357 501.66702 509.62646 512.39606 517.36743">passwords,preferablyoverSSL,wecanreducethe</tspan><tspan
         id="tspan236"
         sodipodi:role="line"
         y="-355.16702"
         x="310.97647 313.74606 318.71744 322.035 326.44843 330.86188 337.90646 342.87781 350.46136 355.43271 359.84616 363.72162 367.59711 374.68115 379.65253 382.97006 392.21637 396.62982 399.39941 402.16904 406.58249 410.99594 415.96729 424.11765 431.30072 434.07034 436.83994">threatofpasswordattackswith</tspan></text>
<text
       id="text238"
       style="font-style:italic;font-variant:normal;font-size:9.96263981px;font-family:Times;-inkscape-font-specification:Times-Italic;writing-mode:lr-tb;fill:#000000;fill-opacity:1;fill-rule:nonzero;stroke:none"
       transform="scale(1,-1)"
       x="446.08636"
       y="-355.16702"><tspan
         id="tspan240"
         sodipodi:role="line"
         y="-355.16702"
         x="446.08636 451.05771 460.30405 464.17953 468.59299 472.46844 476.8819 481.29535 489.43677 493.6972 498.66858 503.63992 508.61127 513.48358 517.89703">noserverchanges</tspan></text>
</g></svg>